<svg xmlns="http://www.w3.org/2000/svg" width="1440" height="760" viewBox="0 0 1440 760">
<defs><filter id="s" x="-10%" y="-10%" width="120%" height="130%"><feDropShadow dx="0" dy="6" stdDeviation="8" flood-color="#102A43" flood-opacity=".07"/></filter><style>.t{font-family:Arial,Helvetica,sans-serif}.n{fill:#102A43}.m{fill:#6B7C93}.b{fill:#3B82F6}.c{fill:#06B6D4}.card{fill:#fff;stroke:#DEE8F3;stroke-width:1}.grid{stroke:#E9F1FA;stroke-width:1}</style></defs>
<rect width="1440" height="760" fill="#F4F8FC"/>
<text x="55" y="48" class="t b" font-size="13" font-weight="700" letter-spacing="1.4">REVENUE MANAGEMENT ANALYTICS · H2 CITY HOTEL</text>
<text x="55" y="86" class="t n" font-size="34" font-weight="700">Booking Reliability &amp; Inventory Exposure</text>
<text x="55" y="114" class="t m" font-size="14">79,330 real PMS booking observations · Lisbon · arrivals Jul 2015–Aug 2017</text>
<g filter="url(#s)">
<rect x="55" y="145" width="250" height="92" rx="14" class="card"/><rect x="320" y="145" width="250" height="92" rx="14" class="card"/><rect x="585" y="145" width="250" height="92" rx="14" class="card"/><rect x="850" y="145" width="250" height="92" rx="14" class="card"/><rect x="1115" y="145" width="270" height="92" rx="14" class="card"/>
</g>
<text x="73" y="171" class="t m" font-size="11" font-weight="700">BOOKINGS</text><text x="73" y="209" class="t n" font-size="29" font-weight="700">79,330</text>
<text x="338" y="171" class="t m" font-size="11" font-weight="700">REALIZATION RATE</text><text x="338" y="209" class="t n" font-size="29" font-weight="700">58.3%</text>
<text x="603" y="171" class="t m" font-size="11" font-weight="700">NO DEPOSIT SHARE</text><text x="603" y="209" class="t n" font-size="29" font-weight="700">83.75%</text>
<text x="868" y="171" class="t m" font-size="11" font-weight="700">NO DEPOSIT FAILURE RATE</text><text x="868" y="209" class="t n" font-size="29" font-weight="700">30.5%</text>
<text x="1133" y="171" class="t m" font-size="11" font-weight="700">NO DEPOSIT FAILED ROOM NIGHTS</text><text x="1133" y="209" class="t n" font-size="29" font-weight="700">68,219</text>
<g filter="url(#s)"><rect x="55" y="260" width="650" height="210" rx="16" class="card"/><rect x="720" y="260" width="665" height="210" rx="16" class="card"/><rect x="55" y="486" width="650" height="220" rx="16" class="card"/><rect x="720" y="486" width="665" height="220" rx="16" class="card"/></g>
<text x="76" y="290" class="t n" font-size="16" font-weight="700">Payment status reframes the headline</text><text x="76" y="310" class="t m" font-size="11">Booking share and non-materialization rate by deposit type</text>
<line x1="105" y1="430" x2="650" y2="430" class="grid"/><line x1="105" y1="335" x2="105" y2="430" class="grid"/>
<rect x="155" y="350" width="90" height="80" fill="#D7E6FF"/><rect x="335" y="414" width="90" height="16" fill="#D7E6FF"/><rect x="515" y="429" width="90" height="1" fill="#D7E6FF"/>
<circle cx="200" cy="399" r="6" class="b"/><circle cx="380" cy="336" r="6" class="b"/><circle cx="560" cy="363" r="6" class="b"/>
<text x="181" y="390" class="t n" font-size="11">30.5%</text><text x="358" y="326" class="t n" font-size="11">99.8%</text><text x="542" y="353" class="t n" font-size="11">70.0%</text>
<text x="167" y="451" class="t m" font-size="11">No Deposit</text><text x="345" y="451" class="t m" font-size="11">Non Refund</text><text x="530" y="451" class="t m" font-size="11">Refundable</text>
<text x="742" y="290" class="t n" font-size="16" font-weight="700">Exposure is concentrated in Online TA</text><text x="742" y="310" class="t m" font-size="11">Failed No Deposit room nights; labels show failure rate</text>
<line x1="830" y1="335" x2="830" y2="438" class="grid"/>
<rect x="830" y="342" width="455" height="18" rx="4" fill="#5B8FF9"/><rect x="830" y="370" width="105" height="18" rx="4" fill="#5B8FF9"/><rect x="830" y="398" width="74" height="18" rx="4" fill="#5B8FF9"/><rect x="830" y="426" width="36" height="12" rx="3" fill="#5B8FF9"/>
<text x="750" y="355" class="t m" font-size="11">Online TA</text><text x="750" y="383" class="t m" font-size="11">Offline TA/TO</text><text x="750" y="411" class="t m" font-size="11">Groups</text><text x="750" y="437" class="t m" font-size="11">Direct</text>
<text x="1295" y="355" class="t n" font-size="11">37.3%</text><text x="945" y="383" class="t n" font-size="11">19.5%</text><text x="914" y="411" class="t n" font-size="11">31.2%</text>
<text x="76" y="516" class="t n" font-size="16" font-weight="700">Cancellation timing defines the recovery window</text><text x="76" y="536" class="t m" font-size="11">Share of failed No Deposit room-night exposure</text>
<circle cx="257" cy="617" r="72" fill="none" stroke="#1D4ED8" stroke-width="28" stroke-dasharray="245 207" transform="rotate(-90 257 617)"/><circle cx="257" cy="617" r="72" fill="none" stroke="#60A5FA" stroke-width="28" stroke-dasharray="116 336" stroke-dashoffset="-245" transform="rotate(-90 257 617)"/><circle cx="257" cy="617" r="72" fill="none" stroke="#22C1DC" stroke-width="28" stroke-dasharray="91 361" stroke-dashoffset="-361" transform="rotate(-90 257 617)"/>
<text x="218" y="614" class="t n" font-size="22" font-weight="700">54.2%</text><text x="211" y="633" class="t m" font-size="10">&gt;30 days</text>
<rect x="370" y="570" width="12" height="12" rx="2" fill="#1D4ED8"/><text x="390" y="580" class="t m" font-size="12">&gt;30 days: 54.2%</text><rect x="370" y="598" width="12" height="12" rx="2" fill="#60A5FA"/><text x="390" y="608" class="t m" font-size="12">8–30 days: 25.6%</text><rect x="370" y="626" width="12" height="12" rx="2" fill="#22C1DC"/><text x="390" y="636" class="t m" font-size="12">0–7 days / No-show: 20.2%</text>
<text x="742" y="516" class="t n" font-size="16" font-weight="700">Matched Jan–Aug comparison</text><text x="742" y="536" class="t m" font-size="11">No Deposit + Online TA · observed and lead-time-standardized rates</text>
<line x1="800" y1="660" x2="1325" y2="660" class="grid"/><line x1="800" y1="560" x2="800" y2="660" class="grid"/>
<rect x="875" y="608" width="115" height="52" fill="#D7E6FF" opacity=".65"/><rect x="1135" y="579" width="115" height="81" fill="#D7E6FF" opacity=".65"/>
<polyline points="932,625 1192,582" fill="none" stroke="#3B82F6" stroke-width="4"/><circle cx="932" cy="625" r="6" class="b"/><circle cx="1192" cy="582" r="6" class="b"/>
<polyline points="932,620 1192,597" fill="none" stroke="#06B6D4" stroke-width="3" stroke-dasharray="8 6"/><circle cx="932" cy="620" r="5" class="c"/><circle cx="1192" cy="597" r="5" class="c"/>
<text x="900" y="608" class="t n" font-size="11">34.1% / 35.0%</text><text x="1160" y="566" class="t n" font-size="11">41.0%</text><text x="1164" y="617" class="t" fill="#0788A0" font-size="11">39.3%</text><text x="888" y="682" class="t m" font-size="11">2016 Jan–Aug</text><text x="1148" y="682" class="t m" font-size="11">2017 Jan–Aug</text>
</svg>